<svg width="100" height="100" viewBox="0 0 100 100" fill="none" xmlns="http://www.w3.org/2000/svg">
<path d="M64.7497 47.0417L41.1664 23.5001C40.779 23.1095 40.3182 22.7996 39.8105 22.588C39.3027 22.3765 38.7581 22.2676 38.2081 22.2676C37.658 22.2676 37.1134 22.3765 36.6057 22.588C36.0979 22.7996 35.6371 23.1095 35.2497 23.5001C34.4737 24.2807 34.0381 25.3368 34.0381 26.4376C34.0381 27.5383 34.4737 28.5944 35.2497 29.3751L55.8747 50.2084L35.2497 70.8334C34.4737 71.6141 34.0381 72.6701 34.0381 73.7709C34.0381 74.8717 34.4737 75.9277 35.2497 76.7084C35.6356 77.1021 36.0958 77.4153 36.6036 77.6299C37.1114 77.8445 37.6568 77.9561 38.2081 77.9584C38.7593 77.9561 39.3047 77.8445 39.8125 77.6299C40.3203 77.4153 40.7805 77.1021 41.1664 76.7084L64.7497 53.1667C65.1727 52.7766 65.5102 52.303 65.7411 51.7759C65.9719 51.2489 66.0911 50.6797 66.0911 50.1042C66.0911 49.5288 65.9719 48.9596 65.7411 48.4325C65.5102 47.9055 65.1727 47.4319 64.7497 47.0417Z" fill="#3B5CEE"/>
</svg>
