<svg width="25" height="26" viewBox="0 0 25 26" fill="none" xmlns="http://www.w3.org/2000/svg">
<path d="M5.61328 10.4079C6.60732 7.39583 9.43797 5.23256 12.7908 5.23256C14.5931 5.23256 16.221 5.87209 17.5001 6.9186L21.221 3.19767C18.9536 1.22093 16.0466 0 12.7908 0C7.74919 0 3.40854 2.87609 1.32178 7.0882L5.61328 10.4079Z" fill="#EA4335"/>
<path d="M17.0975 19.1995C15.9359 19.9495 14.4598 20.3488 12.7905 20.3488C9.45056 20.3488 6.62875 18.2021 5.62454 15.208L1.31885 18.4772C3.40301 22.6967 7.74355 25.5814 12.7905 25.5814C15.9166 25.5814 18.9038 24.4701 21.1409 22.3833L17.0975 19.1995Z" fill="#34A853"/>
<path d="M21.1414 22.383C23.481 20.2006 25.0003 16.9513 25.0003 12.7904C25.0003 12.0346 24.884 11.2207 24.7096 10.4648H12.791V15.4067H19.6515C19.313 17.0685 18.4043 18.3557 17.098 19.1992L21.1414 22.383Z" fill="#4A90E2"/>
<path d="M5.62469 15.2077C5.37031 14.4493 5.23256 13.6364 5.23256 12.7904C5.23256 11.9572 5.36616 11.1562 5.6132 10.4076L1.3217 7.08789C0.465355 8.80441 0 10.739 0 12.7904C0 14.8364 0.474088 16.7663 1.319 18.4769L5.62469 15.2077Z" fill="#FBBC05"/>
</svg>
