<svg width="30" height="30" viewBox="0 0 30 30" fill="none" xmlns="http://www.w3.org/2000/svg">
<path d="M15 9.54448C11.9864 9.54448 9.54545 11.9851 9.54545 14.9985C9.54545 18.0118 11.9864 20.4525 15 20.4525C18.0136 20.4525 20.4545 18.0118 20.4545 14.9985C20.4545 11.9851 18.0136 9.54448 15 9.54448ZM27.1909 13.635C26.5636 7.94919 22.05 3.43601 16.3636 2.8088V0H13.6364V2.8088C7.95 3.43601 3.43636 7.94919 2.80909 13.635H0V16.362H2.80909C3.43636 22.0478 7.95 26.5609 13.6364 27.1881V29.9969H16.3636V27.1881C22.05 26.5609 26.5636 22.0478 27.1909 16.362H30V13.635H27.1909ZM15 24.5429C9.72273 24.5429 5.45455 20.2752 5.45455 14.9985C5.45455 9.72174 9.72273 5.45399 15 5.45399C20.2773 5.45399 24.5455 9.72174 24.5455 14.9985C24.5455 20.2752 20.2773 24.5429 15 24.5429Z" fill="#3B5CEE"/>
</svg>
