<svg width="50" height="50" viewBox="0 0 50 50" fill="none" xmlns="http://www.w3.org/2000/svg">
<path d="M25 50C38.8071 50 50 38.8071 50 25C50 11.1929 38.8071 0 25 0C11.1929 0 0 11.1929 0 25C0 38.8071 11.1929 50 25 50Z" fill="#1DA1F2"/>
<path d="M37.9883 17.3242C37.0703 17.7295 36.0889 18.0029 35.0537 18.1299C36.1084 17.4951 36.9189 16.4941 37.2998 15.3027C36.3135 15.8789 35.2148 16.2988 34.0527 16.5332C33.1201 15.5371 31.7969 14.9121 30.3223 14.9121C27.5 14.9121 25.21 17.2021 25.21 20.0195C25.21 20.4248 25.2588 20.8154 25.3418 21.1865C21.0938 20.9863 17.3242 18.9453 14.8047 15.8594C14.3604 16.6113 14.1113 17.4805 14.1113 18.4326C14.1113 20.21 15.0146 21.7725 16.3867 22.6904C15.5469 22.6611 14.7607 22.4316 14.0723 22.0508V22.1143C14.0723 24.5947 15.8301 26.6602 18.1738 27.1289C17.7441 27.2461 17.29 27.3047 16.8262 27.3047C16.499 27.3047 16.1865 27.2754 15.874 27.2168C16.5283 29.248 18.4131 30.7275 20.6592 30.7666C18.916 32.1387 16.6992 32.9541 14.3213 32.9541C13.916 32.9541 13.5107 32.9297 13.1055 32.8857C15.3809 34.3359 18.0615 35.1807 20.957 35.1807C30.3564 35.1807 35.498 27.3926 35.498 20.6494C35.498 20.4346 35.498 20.2148 35.4834 19.9951C36.4795 19.2773 37.3535 18.374 38.0371 17.3486L37.9883 17.3242Z" fill="white"/>
</svg>
